<svg width="100" height="100" viewBox="0 0 256 315" xmlns="http://www.w3.org/2000/svg">
  <path fill="black" d="M213.803 167.324c-.387-38.19 31.215-56.472 32.635-57.29-17.72-25.9-45.284-29.45-55.066-29.89-23.476-2.375-45.854 13.84-57.782 13.84-11.922 0-30.346-13.48-49.886-13.12-25.63.38-49.283 14.88-62.438 37.8-26.606 46.13-6.8 114.42 19.11 151.84 13.082 18.92 28.618 40.17 48.91 39.43 19.41-.75 26.72-12.78 50.12-12.78 23.39 0 30.01 12.78 49.91 12.36 20.68-.33 33.74-19.17 46.67-38.2 14.76-21.53 20.83-42.37 21.17-43.4-.46-.2-41.19-15.79-41.59-62.54zm-39.13-113.3c10.51-12.72 17.6-30.46 15.68-48.24-15.17.61-33.52 10.1-44.38 22.82-9.72 11.27-18.23 29.43-15.95 46.84 16.88 1.31 34.14-8.59 44.65-21.42z"/>
</svg>
